<svg width="800" height="400" viewBox="0 0 800 400" fill="none" xmlns="http://www.w3.org/2000/svg">
  <rect width="800" height="400" fill="#E5E7EB"/>
  <rect width="800" height="400" fill="url(#paint0_linear)"/>
  <path d="M400 134C375.1 134 355 154.1 355 179C355 203.9 375.1 224 400 224C424.9 224 445 203.9 445 179C445 154.1 424.9 134 400 134ZM400 204C386.2 204 375 192.8 375 179C375 165.2 386.2 154 400 154C413.8 154 425 165.2 425 179C425 192.8 413.8 204 400 204Z" fill="#9CA3AF"/>
  <path d="M519.2 290L480 250.8L440.8 290L320 169.2V317.2H480H640V169.2L519.2 290Z" fill="#9CA3AF"/>
  <path d="M320 149.2V137.2H480H640V149.2L519.2 270L480 230.8L440.8 270L320 149.2Z" fill="#9CA3AF"/>
  <path d="M352.5 83C350.4 83 348.3 82.7 346.3 82.1C344.3 81.5 342.4 80.7 340.8 79.6C339.1 78.5 337.7 77.2 336.5 75.6C335.4 74 334.5 72.3 334 70.3H342.4C343.1 72.1 344.5 73.5 346.4 74.6C348.3 75.7 350.4 76.2 352.5 76.2C354.4 76.2 356.1 75.8 357.6 75C359.1 74.2 360.3 73.1 361.1 71.7C361.9 70.3 362.3 68.6 362.3 66.7C362.3 64.8 361.9 63.1 361 61.7C360.2 60.3 359 59.2 357.5 58.4C356 57.6 354.3 57.2 352.4 57.2C350.9 57.2 349.5 57.4 348.1 57.9C346.7 58.4 345.6 59 344.7 59.8L336.5 59.7L339.4 37.2H369.9V44H345.9L344.5 54.8H344.7C345.7 53.9 347 53.1 348.7 52.5C350.4 51.9 352.2 51.6 354.1 51.6C357.3 51.6 360.2 52.4 362.7 53.9C365.2 55.4 367.2 57.5 368.6 60.1C370 62.7 370.7 65.8 370.7 69.2C370.7 72.6 369.9 75.6 368.4 78.2C366.9 80.8 364.8 82.8 362.1 84.3C359.4 85.8 356.2 86.5 352.5 86.5V83Z" fill="#9CA3AF"/>
  <path d="M383.9 86V37.2H391.7V69.1H391.9L408.9 51.8H418.7L402.6 68L419.7 86H409.9L396.1 71.5L391.7 75.9V86H383.9ZM440.3 86.5C437.1 86.5 434.2 85.8 431.7 84.3C429.2 82.8 427.3 80.8 425.9 78.2C424.5 75.6 423.8 72.6 423.8 69.2C423.8 65.8 424.5 62.8 425.9 60.2C427.3 57.6 429.2 55.6 431.7 54.1C434.2 52.6 437.1 51.9 440.3 51.9C443.5 51.9 446.4 52.6 448.9 54.1C451.4 55.6 453.3 57.6 454.7 60.2C456.1 62.8 456.8 65.8 456.8 69.2C456.8 72.6 456.1 75.6 454.7 78.2C453.3 80.8 451.4 82.8 448.9 84.3C446.4 85.8 443.5 86.5 440.3 86.5ZM440.3 79.5C442.1 79.5 443.7 79 445 78C446.3 77 447.3 75.6 448 73.9C448.7 72.2 449 70.3 449 68.2V69.2C449 67.1 448.7 65.2 448 63.5C447.3 61.8 446.3 60.4 445 59.4C443.7 58.4 442.1 57.9 440.3 57.9C438.5 57.9 436.9 58.4 435.6 59.4C434.3 60.4 433.3 61.8 432.6 63.5C431.9 65.2 431.6 67.1 431.6 69.2C431.6 71.3 431.9 73.2 432.6 74.9C433.3 76.6 434.3 78 435.6 79C436.9 80 438.5 80.5 440.3 80.5V79.5ZM488.5 51.8V86H481.3V79.9H481.1C480.3 81.9 479 83.5 477.1 84.8C475.2 86.1 473 86.7 470.6 86.7C467.8 86.7 465.4 86 463.3 84.6C461.2 83.2 459.6 81.2 458.4 78.7C457.2 76.2 456.6 73.3 456.6 70V51.8H464.4V68.9C464.4 71.8 465.1 74.1 466.5 75.8C467.9 77.5 469.8 78.3 472.1 78.3C473.5 78.3 474.8 78 476 77.3C477.2 76.6 478.2 75.6 478.9 74.2C479.7 72.8 480 71.1 480 69.2V51.8H488.5Z" fill="#9CA3AF"/>
  <defs>
    <linearGradient id="paint0_linear" x1="0" y1="0" x2="800" y2="400" gradientUnits="userSpaceOnUse">
      <stop stop-color="#F3F4F6"/>
      <stop offset="1" stop-color="#D1D5DB"/>
    </linearGradient>
  </defs>
</svg>
