<svg width="100" height="100" viewBox="0 0 100 100" fill="none" xmlns="http://www.w3.org/2000/svg">
  <rect width="100" height="100" rx="50" fill="#F3F4F6"/>
  <path d="M50 25C39.5 25 31 33.5 31 44C31 51.1 35.3 57.3 41.5 60.1L38.9 75L50 70L61.1 75L58.5 60.1C64.7 57.3 69 51.1 69 44C69 33.5 60.5 25 50 25ZM50 56C43.4 56 38 50.6 38 44C38 37.4 43.4 32 50 32C56.6 32 62 37.4 62 44C62 50.6 56.6 56 50 56Z" fill="#008848"/>
  <path d="M50 38C46.7 38 44 40.7 44 44C44 47.3 46.7 50 50 50C53.3 50 56 47.3 56 44C56 40.7 53.3 38 50 38ZM50 47C48.3 47 47 45.7 47 44C47 42.3 48.3 41 50 41C51.7 41 53 42.3 53 44C53 45.7 51.7 47 50 47Z" fill="#fcd116"/>
</svg>
